<svg width="150" height="36" viewBox="0 0 150 36" fill="none" xmlns="http://www.w3.org/2000/svg">
<path d="M15.7523 8.82531C16.091 9.17482 16.2604 9.52434 16.2604 9.96124C16.2604 10.3981 16.091 10.835 15.7523 11.0972C15.4135 11.3593 14.9901 11.6214 14.4819 11.6214H8.80773V26.1264C8.80773 28.0487 9.0618 29.5342 9.56993 30.6701C10.0781 31.8061 11.179 32.4177 12.7881 32.4177C13.1269 32.4177 13.635 32.3303 14.1432 32.2429C14.6513 32.1556 14.9901 31.9808 15.2441 31.806C15.5829 31.6313 16.0063 31.4565 16.2604 31.4565C16.6839 31.4565 17.1073 31.6313 17.4461 31.9808C17.7848 32.3303 17.9542 32.7672 17.9542 33.2041C17.9542 33.9032 17.6155 34.5148 16.8533 34.9517C15.837 35.5634 14.4819 35.8255 12.8728 35.8255C7.70676 35.8255 5.16607 32.5925 5.16607 26.039V11.6214H1.77849C1.18566 11.6214 0.762212 11.4467 0.508143 11.0972C0.169384 10.7476 0 10.3981 0 9.96124C0 9.52434 0.169384 9.17482 0.508143 8.82531C0.846902 8.47579 1.27035 8.30103 1.77849 8.30103H5.16607V1.92234C5.16607 1.31069 5.33545 0.873795 5.67421 0.524278C6.01297 0.174761 6.43642 0 7.02924 0C7.62207 0 7.96084 0.174761 8.38428 0.524278C8.72304 0.873795 8.89241 1.31069 8.89241 1.92234V8.30103H14.5666C14.9901 8.38841 15.4135 8.56317 15.7523 8.82531Z" fill="#FBFBFB"/>
<path d="M26.7623 34.0778C24.7298 32.7671 23.1207 31.0195 22.0197 28.835C20.9188 26.6506 20.3259 24.2039 20.3259 21.4952C20.3259 18.9612 20.9188 16.6019 22.1044 14.5048C23.2901 12.4077 24.8992 10.7475 26.9317 9.6116C28.9643 8.38829 31.2509 7.86401 33.8763 7.86401C36.417 7.86401 38.7883 8.47567 40.8208 9.69898C42.8534 10.9223 44.5472 12.6699 45.6482 14.767C46.8338 16.8641 47.3419 19.2233 47.3419 21.7573C47.3419 24.4661 46.7491 26.8253 45.6482 29.0098C44.4625 31.1943 42.8534 32.8545 40.8208 34.0778C38.7883 35.3011 36.417 35.9128 33.8763 35.9128C31.1662 36.0002 28.7949 35.3011 26.7623 34.0778ZM29.049 12.6699C27.6092 13.4563 26.4236 14.6796 25.492 16.2524C24.5604 17.8253 24.137 19.7476 24.137 21.9321C24.137 23.8544 24.5604 25.602 25.3226 27.1748C26.1695 28.7477 27.2705 29.971 28.7102 30.9321C30.1499 31.8059 31.8437 32.3302 33.7916 32.3302C35.6548 32.3302 37.3486 31.8933 38.7883 30.9321C40.3127 29.971 41.4137 28.7477 42.2606 27.1748C43.1075 25.602 43.5309 23.9418 43.5309 22.1068C43.5309 19.835 43.0228 17.9126 42.0912 16.2524C41.1596 14.6796 39.9739 13.4563 38.4495 12.6699C36.9251 11.8835 35.4007 11.5339 33.7069 11.5339C32.0131 11.5339 30.4887 11.8835 29.049 12.6699Z" fill="#FBFBFB"/>
<path d="M65.0416 8.82531C65.3803 9.17482 65.5497 9.52434 65.5497 9.96124C65.5497 10.3981 65.3803 10.835 65.0416 11.0972C64.7028 11.3593 64.2794 11.6214 63.7712 11.6214H58.097V26.1264C58.097 28.0487 58.3511 29.5342 58.8592 30.6701C59.3674 31.8061 60.4683 32.4177 62.0774 32.4177C62.4162 32.4177 62.9243 32.3303 63.4325 32.2429C63.9406 32.1556 64.2794 31.9808 64.5334 31.806C64.8722 31.6313 65.2957 31.4565 65.5497 31.4565C65.9732 31.4565 66.3966 31.6313 66.7354 31.9808C67.0741 32.3303 67.2435 32.7672 67.2435 33.2041C67.2435 33.9032 66.9048 34.5148 66.1426 34.9517C65.1263 35.5634 63.7712 35.8255 62.1621 35.8255C56.9961 35.8255 54.4554 32.5925 54.4554 26.039V11.6214H51.0678C50.475 11.6214 50.0515 11.4467 49.7974 11.0972C49.5434 10.7476 49.2893 10.3981 49.2893 9.96124C49.2893 9.52434 49.4587 9.17482 49.7974 8.82531C50.1362 8.47579 50.5597 8.30103 51.0678 8.30103H54.4554V1.92234C54.4554 1.31069 54.6248 0.873795 54.9635 0.524278C55.3023 0.174761 55.7257 0 56.3185 0C56.8267 0 57.2501 0.174761 57.6736 0.524278C58.0123 0.873795 58.1817 1.31069 58.1817 1.92234V8.30103H63.8559C64.2794 8.38841 64.7028 8.56317 65.0416 8.82531Z" fill="#FBFBFB"/>
<path d="M94.176 24.2039H73.6811C73.9352 25.6894 74.4433 27.0875 75.2902 28.3108C76.1371 29.5341 77.2381 30.4952 78.5931 31.2817C79.9481 32.0681 81.4726 32.4176 83.1664 32.4176C85.8764 32.4176 88.1631 31.6312 90.0262 30.1457C90.4497 29.7962 90.9578 29.5341 91.466 29.5341C91.9741 29.5341 92.3975 29.7088 92.7363 30.0583C93.0751 30.4079 93.2444 30.7574 93.2444 31.1943C93.2444 31.7186 92.9904 32.2428 92.4822 32.7671C91.3813 33.903 89.9415 34.6895 88.3324 35.2137C86.7233 35.738 85.0295 36.0001 83.251 36.0001C80.6257 36.0001 78.2544 35.3885 76.1371 34.1652C74.1046 32.9419 72.4954 31.2817 71.3945 29.0972C70.2935 26.9127 69.7007 24.5535 69.7007 21.8447C69.7007 18.9612 70.2935 16.4272 71.5639 14.3301C72.8342 12.233 74.4433 10.6602 76.4759 9.52422C78.5084 8.38829 80.6257 7.86401 82.9123 7.86401C85.3683 7.86401 87.5702 8.38829 89.6028 9.34946C91.6353 10.3106 93.3291 11.8835 94.5995 13.9806C95.8698 16.0777 96.5473 18.699 96.5473 21.7573C96.7167 23.4175 95.8698 24.2039 94.176 24.2039ZM93.0751 20.9709C92.9057 18.9612 92.3129 17.2136 91.3813 15.8155C90.4497 14.4175 89.1793 13.2815 87.7396 12.5825C86.2999 11.8835 84.8602 11.5339 83.3357 11.5339C80.7104 11.5339 78.5084 12.3204 76.6452 13.9806C74.7821 15.6408 73.7658 17.9126 73.5117 20.9709H93.0751Z" fill="#FBFBFB"/>
<path d="M144.82 15.291C144.058 14.0677 143.126 13.1065 141.94 12.4948C140.755 11.7958 139.4 11.4463 137.96 11.4463C136.181 11.4463 134.488 11.8832 133.048 12.757C131.523 13.6308 130.423 14.8541 129.491 16.4269C128.644 17.9997 128.221 19.7473 128.221 21.757V33.5532C128.221 34.1649 128.051 34.6018 127.712 34.9513C127.374 35.3008 126.866 35.4756 126.273 35.4756C125.68 35.4756 125.256 35.3008 124.833 34.9513C124.494 34.6018 124.325 34.1649 124.325 33.5532V20.2716C124.325 18.6988 123.986 17.2133 123.393 15.9026C122.8 14.5919 121.869 13.456 120.683 12.757C119.413 11.9706 117.888 11.5337 116.195 11.5337C114.501 11.5337 112.892 11.9706 111.452 12.757C109.928 13.6308 108.742 14.7667 107.895 16.3395C106.963 17.9124 106.54 19.5726 106.54 21.4949V33.5532C106.54 34.1649 106.371 34.6018 106.032 34.8639C105.693 35.2135 105.27 35.3882 104.677 35.3882C104.169 35.3882 103.745 35.2135 103.322 34.8639C102.983 34.5144 102.729 34.0775 102.729 33.5532V10.223C102.729 9.69871 102.898 9.26181 103.237 8.9123C103.576 8.56278 103.999 8.38802 104.592 8.38802C105.185 8.38802 105.608 8.56278 105.947 8.9123C106.286 9.26181 106.455 9.69871 106.455 10.223V13.2813C107.472 11.4463 108.827 10.0482 110.52 9.17443C112.214 8.30064 114.077 7.77637 116.195 7.77637C118.566 7.77637 120.768 8.38802 122.716 9.52395C124.664 10.7473 126.019 12.4948 126.696 14.7667C127.628 12.4948 129.067 10.7473 131.015 9.52395C133.048 8.30064 135.25 7.77637 137.621 7.77637C139.654 7.77637 141.602 8.21326 143.465 9.17443C145.328 10.0482 146.768 11.3589 147.953 13.1065C149.054 14.8541 149.647 16.8638 149.647 19.223V33.5532C149.647 34.1649 149.478 34.6018 149.139 34.9513C148.8 35.3008 148.292 35.4756 147.699 35.4756C147.106 35.4756 146.683 35.3008 146.344 34.9513C146.005 34.6018 145.836 34.1649 145.836 33.5532V19.3978C145.921 17.9124 145.497 16.5143 144.82 15.291Z" fill="#FBFBFB"/>
</svg>
